<?xml version="1.0" standalone="no"?>
<!DOCTYPE svg PUBLIC "-//W3C//DTD SVG 20010904//EN"
 "http://www.w3.org/TR/2001/REC-SVG-20010904/DTD/svg10.dtd">
<svg version="1.0" xmlns="http://www.w3.org/2000/svg"
 width="375.000000pt" height="375.000000pt" viewBox="0 0 375.000000 375.000000"
 preserveAspectRatio="xMidYMid meet">
<metadata>
Created by potrace 1.14, written by Peter Selinger 2001-2017
</metadata>
<g transform="translate(0.000000,375.000000) scale(0.100000,-0.100000)"
fill="#000000" stroke="none">
<path d="M1677 3744 c-2 -3 -24 -7 -48 -9 -79 -8 -121 -16 -139 -25 -10 -5
-20 -7 -23 -4 -3 3 -36 -4 -74 -16 -37 -12 -75 -23 -83 -25 -29 -6 -107 -35
-156 -57 -27 -12 -51 -22 -54 -23 -13 -1 -87 -39 -102 -53 -10 -8 -18 -12 -18
-8 0 3 -12 -1 -27 -11 -64 -39 -198 -128 -203 -133 -3 -3 -25 -21 -50 -40 -25
-19 -54 -44 -66 -55 -11 -11 -36 -34 -55 -50 -30 -27 -158 -169 -199 -221 -52
-67 -131 -195 -180 -294 -51 -103 -108 -239 -114 -273 -1 -6 -7 -28 -14 -47
-14 -44 -48 -198 -59 -270 -14 -95 -8 -550 7 -550 3 0 7 -12 8 -27 2 -27 6
-50 17 -93 3 -11 7 -30 10 -42 3 -12 15 -54 27 -93 12 -38 22 -72 23 -75 4
-38 112 -259 179 -367 48 -78 64 -100 106 -150 5 -7 10 -14 10 -17 0 -8 87
-103 160 -176 61 -60 93 -88 175 -153 60 -47 151 -107 163 -107 7 0 12 -3 12
-7 0 -5 10 -13 23 -19 12 -6 67 -34 122 -62 93 -46 280 -117 343 -129 15 -3
32 -6 37 -7 6 -2 21 -6 35 -9 14 -4 39 -8 55 -11 17 -2 37 -7 45 -10 49 -18
401 -27 500 -13 30 4 74 10 98 13 24 3 78 15 120 25 42 11 84 21 92 22 32 6
165 52 168 59 2 5 11 8 20 8 14 0 126 49 162 71 8 5 31 17 50 27 51 27 144 83
150 91 3 3 28 22 55 41 28 19 59 41 70 50 27 21 247 241 265 265 8 11 31 40
50 64 87 111 228 371 266 491 9 30 21 60 25 66 5 6 6 14 3 17 -3 3 -2 12 2 19
5 7 9 18 10 23 1 6 10 39 19 75 10 36 19 76 21 90 2 14 6 43 9 65 21 140 24
194 20 315 -2 74 -6 153 -9 175 -10 75 -15 110 -21 135 -3 14 -7 37 -10 52 -2
15 -6 36 -10 47 -3 11 -7 28 -10 38 -2 10 -11 41 -20 68 -9 28 -18 56 -20 63
-3 7 -5 16 -6 20 -8 43 -144 325 -160 330 -5 2 -9 8 -9 13 0 20 -106 167 -185
258 -84 97 -200 203 -300 278 -71 52 -151 103 -162 103 -7 0 -13 4 -13 9 0 5
-10 13 -22 16 -11 4 -43 20 -70 36 -26 16 -48 26 -48 24 0 -3 -17 4 -37 14
-63 32 -164 69 -248 91 -44 12 -87 24 -95 27 -8 3 -24 7 -35 8 -11 1 -36 5
-55 8 -19 4 -51 10 -70 13 -43 7 -447 14 -453 8z"/>
</g>
</svg>
